<?xml version="1.0" encoding="UTF-8"?>
<svg width="4320" height="3000" viewBox="0 0 4320 3000" fill="none" xmlns="http://www.w3.org/2000/svg">
  <!-- HOMEPAGE CUSTOMER -->
  <g id="homepage">
    <rect x="0" y="0" width="1440" height="1200" fill="#FFFFFF"/>
    
    <!-- Top Bar (primary-700 = #d32f2f) -->
    <rect x="0" y="0" width="1440" height="40" fill="#d32f2f"/>
    <text x="5" y="15" fill="white" font-family="Inter" font-size="10">1440×40px</text>
    <text x="120" y="25" fill="white" font-family="Inter" font-size="12">📞 0895-3339-61424</text>
    <text x="300" y="25" fill="white" font-family="Inter" font-size="12">✉️ medyyes.krps@gmail.com</text>
    <text x="1000" y="25" fill="white" font-family="Inter" font-size="12">Gratis ongkir untuk pembelian di atas Rp 500.000</text>
    
    <!-- Main Header -->
    <rect x="0" y="40" width="1440" height="80" fill="white" stroke="#e0e0e0"/>
    <text x="5" y="55" fill="#757575" font-family="Inter" font-size="10">1440×80px</text>
    
    <!-- Logo (gradient from primary-700 to blue-900) -->
    <rect x="120" y="55" width="40" height="40" rx="8" fill="url(#logoGradient)"/>
    <text x="125" y="50" fill="#757575" font-family="Inter" font-size="8">40×40px</text>
    <text x="135" y="80" fill="white" font-family="Inter" font-size="16" font-weight="bold">IM</text>
    <text x="180" y="70" fill="#212121" font-family="Inter" font-size="20" font-weight="bold">Inter Medi-A</text>
    <text x="180" y="85" fill="#757575" font-family="Inter" font-size="12">Office Solutions</text>
    
    <!-- Search Bar -->
    <rect x="400" y="55" width="500" height="40" rx="8" fill="white" stroke="#bdbdbd"/>
    <text x="405" y="50" fill="#757575" font-family="Inter" font-size="8">500×40px</text>
    <text x="420" y="78" fill="#9e9e9e" font-family="Inter" font-size="14">Cari printer, komputer, peralatan kantor...</text>
    <circle cx="870" cy="75" r="15" fill="#1976d2"/>
    <text x="860" y="95" fill="#757575" font-family="Inter" font-size="8">30×30px</text>
    
    <!-- Navigation Icons -->
    <circle cx="1200" cy="75" r="20" fill="#f5f5f5"/>
    <text x="1185" y="100" fill="#616161" font-family="Inter" font-size="12">Wishlist</text>
    <text x="1185" y="110" fill="#757575" font-family="Inter" font-size="8">40×40px</text>
    
    <circle cx="1260" cy="75" r="20" fill="#f5f5f5"/>
    <rect x="1270" y="65" width="15" height="10" rx="2" fill="#f44336"/>
    <text x="1275" y="70" fill="white" font-family="Inter" font-size="8">3</text>
    <text x="1245" y="100" fill="#616161" font-family="Inter" font-size="12">Cart</text>
    <text x="1245" y="110" fill="#757575" font-family="Inter" font-size="8">40×40px</text>
    
    <circle cx="1320" cy="75" r="20" fill="#f5f5f5"/>
    <text x="1305" y="100" fill="#616161" font-family="Inter" font-size="12">Profile</text>
    <text x="1305" y="110" fill="#757575" font-family="Inter" font-size="8">40×40px</text>
    
    <!-- Hero Section (gradient from primary-700 via primary-800 to blue-900) -->
    <rect x="0" y="120" width="1440" height="500" fill="url(#heroGradient)"/>
    <text x="5" y="135" fill="white" font-family="Inter" font-size="10">1440×500px</text>
    
    <!-- Hero Content Left -->
    <text x="120" y="200" fill="white" font-family="Inter" font-size="48" font-weight="bold">Premium Office</text>
    <text x="120" y="250" fill="#ffeb3b" font-family="Inter" font-size="48" font-weight="bold">Solutions</text>
    <text x="120" y="300" fill="#ffcdd2" font-family="Inter" font-size="18">Your trusted partner for printers, computers, office equipment,</text>
    <text x="120" y="320" fill="#ffcdd2" font-family="Inter" font-size="18">and professional services. Quality products, expert support.</text>
    
    <!-- Hero Buttons -->
    <rect x="120" y="360" width="180" height="50" rx="8" fill="white"/>
    <text x="190" y="390" fill="#d32f2f" font-family="Inter" font-size="16" font-weight="600">Belanja Sekarang</text>
    
    <rect x="320" y="360" width="150" height="50" rx="8" fill="transparent" stroke="white"/>
    <text x="375" y="390" fill="white" font-family="Inter" font-size="16" font-weight="600">Our Services</text>
    
    <!-- Hero Stats -->
    <rect x="120" y="450" width="120" height="80" fill="rgba(255,255,255,0.1)" rx="8"/>
    <text x="125" y="445" fill="white" font-family="Inter" font-size="8">120×80px</text>
    <circle cx="160" cy="475" r="15" fill="#ffcdd2"/>
    <text x="140" y="500" fill="white" font-family="Inter" font-size="20" font-weight="bold">10,000+</text>
    <text x="135" y="515" fill="#ffcdd2" font-family="Inter" font-size="12">Happy Customers</text>
    
    <rect x="260" y="450" width="120" height="80" fill="rgba(255,255,255,0.1)" rx="8"/>
    <text x="265" y="445" fill="white" font-family="Inter" font-size="8">120×80px</text>
    <circle cx="300" cy="475" r="15" fill="#ffcdd2"/>
    <text x="280" y="500" fill="white" font-family="Inter" font-size="20" font-weight="bold">50,000+</text>
    <text x="270" y="515" fill="#ffcdd2" font-family="Inter" font-size="12">Products Delivered</text>
    
    <rect x="400" y="450" width="120" height="80" fill="rgba(255,255,255,0.1)" rx="8"/>
    <text x="405" y="445" fill="white" font-family="Inter" font-size="8">120×80px</text>
    <circle cx="440" cy="475" r="15" fill="#ffcdd2"/>
    <text x="430" y="500" fill="white" font-family="Inter" font-size="20" font-weight="bold">4.9/5</text>
    <text x="420" y="515" fill="#ffcdd2" font-family="Inter" font-size="12">Customer Rating</text>
    
    <rect x="540" y="450" width="120" height="80" fill="rgba(255,255,255,0.1)" rx="8"/>
    <text x="545" y="445" fill="white" font-family="Inter" font-size="8">120×80px</text>
    <circle cx="580" cy="475" r="15" fill="#ffcdd2"/>
    <text x="570" y="500" fill="white" font-family="Inter" font-size="20" font-weight="bold">15+</text>
    <text x="555" y="515" fill="#ffcdd2" font-family="Inter" font-size="12">Years Experience</text>
    
    <!-- Hero Right Card -->
    <rect x="800" y="180" width="500" height="300" rx="16" fill="rgba(255,255,255,0.1)" stroke="rgba(255,255,255,0.2)"/>
    <text x="805" y="175" fill="white" font-family="Inter" font-size="10">500×300px</text>
    <circle cx="1050" cy="250" r="40" fill="rgba(255,255,255,0.2)"/>
    <text x="1000" y="320" fill="white" font-family="Inter" font-size="24" font-weight="bold">Modern Office Setup</text>
    <text x="820" y="350" fill="#ffcdd2" font-family="Inter" font-size="16">Complete solutions for your modern office needs</text>
    <text x="820" y="370" fill="#ffcdd2" font-family="Inter" font-size="16">with premium equipment and professional services.</text>
    
    <!-- Features Section -->
    <rect x="0" y="620" width="1440" height="200" fill="#fafafa"/>
    <text x="5" y="635" fill="#757575" font-family="Inter" font-size="10">1440×200px</text>
    <text x="120" y="680" fill="#212121" font-family="Inter" font-size="24" font-weight="bold">Why Choose Inter Medi-A</text>
    
    <!-- Feature Cards -->
    <rect x="120" y="700" width="280" height="100" rx="12" fill="white" stroke="#e0e0e0"/>
    <text x="125" y="695" fill="#757575" font-family="Inter" font-size="8">280×100px</text>
    <circle cx="160" cy="730" r="20" fill="#ffebee"/>
    <text x="200" y="735" fill="#212121" font-family="Inter" font-size="16" font-weight="600">Gratis Ongkir</text>
    <text x="200" y="755" fill="#757575" font-family="Inter" font-size="14">Free delivery on orders over Rp 500,000</text>
    
    <rect x="420" y="700" width="280" height="100" rx="12" fill="white" stroke="#e0e0e0"/>
    <text x="425" y="695" fill="#757575" font-family="Inter" font-size="8">280×100px</text>
    <circle cx="460" cy="730" r="20" fill="#e8f5e8"/>
    <text x="500" y="735" fill="#212121" font-family="Inter" font-size="16" font-weight="600">Secure Payment</text>
    <text x="500" y="755" fill="#757575" font-family="Inter" font-size="14">Proses pembayaran 100% aman</text>
    
    <rect x="720" y="700" width="280" height="100" rx="12" fill="white" stroke="#e0e0e0"/>
    <text x="725" y="695" fill="#757575" font-family="Inter" font-size="8">280×100px</text>
    <circle cx="760" cy="730" r="20" fill="#fff3e0"/>
    <text x="800" y="735" fill="#212121" font-family="Inter" font-size="16" font-weight="600">24/7 Support</text>
    <text x="800" y="755" fill="#757575" font-family="Inter" font-size="14">Dedicated customer support team</text>
    
    <rect x="1020" y="700" width="280" height="100" rx="12" fill="white" stroke="#e0e0e0"/>
    <text x="1025" y="695" fill="#757575" font-family="Inter" font-size="8">280×100px</text>
    <circle cx="1060" cy="730" r="20" fill="#e3f2fd"/>
    <text x="1100" y="735" fill="#212121" font-family="Inter" font-size="16" font-weight="600">Quality Guarantee</text>
    <text x="1100" y="755" fill="#757575" font-family="Inter" font-size="14">Premium products with warranty</text>
    
    <!-- Categories Section -->
    <text x="120" y="900" fill="#212121" font-family="Inter" font-size="32" font-weight="bold">Shop by Category</text>
    
    <!-- Category Cards -->
    <rect x="120" y="920" width="200" height="200" rx="12" fill="white" stroke="#e0e0e0"/>
    <text x="125" y="915" fill="#757575" font-family="Inter" font-size="8">200×200px</text>
    <rect x="130" y="930" width="180" height="120" rx="8" fill="#f5f5f5"/>
    <text x="140" y="1070" fill="#212121" font-family="Inter" font-size="16" font-weight="600">Printers</text>
    <text x="140" y="1090" fill="#757575" font-family="Inter" font-size="14">HP, Canon, Epson</text>
    
    <rect x="340" y="920" width="200" height="200" rx="12" fill="white" stroke="#e0e0e0"/>
    <text x="345" y="915" fill="#757575" font-family="Inter" font-size="8">200×200px</text>
    <rect x="350" y="930" width="180" height="120" rx="8" fill="#f5f5f5"/>
    <text x="360" y="1070" fill="#212121" font-family="Inter" font-size="16" font-weight="600">Computers</text>
    <text x="360" y="1090" fill="#757575" font-family="Inter" font-size="14">Dell, Lenovo, HP</text>
    
    <rect x="560" y="920" width="200" height="200" rx="12" fill="white" stroke="#e0e0e0"/>
    <text x="565" y="915" fill="#757575" font-family="Inter" font-size="8">200×200px</text>
    <rect x="570" y="930" width="180" height="120" rx="8" fill="#f5f5f5"/>
    <text x="580" y="1070" fill="#212121" font-family="Inter" font-size="16" font-weight="600">Office Equipment</text>
    <text x="580" y="1090" fill="#757575" font-family="Inter" font-size="14">Scanners, Projectors</text>
  </g>
  <!-- ADMIN DASHBOARD -->
  <g id="admin-dashboard">
    <rect x="1500" y="0" width="1440" height="1024" fill="#fafafa"/>
    <text x="1505" y="15" fill="#757575" font-family="Inter" font-size="10">1440×1024px</text>
    
    <!-- Sidebar -->
    <rect x="1500" y="0" width="256" height="1024" fill="white" stroke="#e0e0e0"/>
    <text x="1505" y="30" fill="#757575" font-family="Inter" font-size="8">256×1024px</text>
    
    <!-- Sidebar Header -->
    <rect x="1500" y="0" width="256" height="64" fill="white" stroke="#e0e0e0"/>
    <text x="1505" y="45" fill="#757575" font-family="Inter" font-size="8">256×64px</text>
    <circle cx="1530" cy="32" r="15" fill="#1976d2"/>
    <text x="1555" y="37" fill="#212121" font-family="Inter" font-size="18" font-weight="bold">Inter Medi-A</text>
    
    <!-- Sidebar Navigation -->
    <rect x="1512" y="88" width="232" height="40" rx="6" fill="#e3f2fd"/>
    <text x="1515" y="83" fill="#757575" font-family="Inter" font-size="7">232×40px</text>
    <circle cx="1530" cy="108" r="8" fill="#1976d2"/>
    <text x="1550" y="113" fill="#1565c0" font-family="Inter" font-size="14" font-weight="500">Dashboard</text>
    
    <rect x="1512" y="138" width="232" height="40" rx="6" fill="transparent"/>
    <circle cx="1530" cy="158" r="8" fill="#757575"/>
    <text x="1550" y="163" fill="#616161" font-family="Inter" font-size="14">Produk</text>
    
    <rect x="1512" y="188" width="232" height="40" rx="6" fill="transparent"/>
    <circle cx="1530" cy="208" r="8" fill="#757575"/>
    <text x="1550" y="213" fill="#616161" font-family="Inter" font-size="14">Pesanan</text>
    
    <rect x="1512" y="238" width="232" height="40" rx="6" fill="transparent"/>
    <circle cx="1530" cy="258" r="8" fill="#757575"/>
    <text x="1550" y="263" fill="#616161" font-family="Inter" font-size="14">Pengguna</text>
    
    <rect x="1512" y="288" width="232" height="40" rx="6" fill="transparent"/>
    <circle cx="1530" cy="308" r="8" fill="#757575"/>
    <text x="1550" y="313" fill="#616161" font-family="Inter" font-size="14">Layanan</text>
    
    <rect x="1512" y="338" width="232" height="40" rx="6" fill="transparent"/>
    <circle cx="1530" cy="358" r="8" fill="#757575"/>
    <text x="1550" y="363" fill="#616161" font-family="Inter" font-size="14">Laporan</text>
    
    <rect x="1512" y="388" width="232" height="40" rx="6" fill="transparent"/>
    <circle cx="1530" cy="408" r="8" fill="#757575"/>
    <text x="1550" y="413" fill="#616161" font-family="Inter" font-size="14">Pengaturan</text>
    
    <!-- Logout Button -->
    <rect x="1512" y="950" width="232" height="40" rx="6" fill="#ffebee"/>
    <text x="1515" y="945" fill="#757575" font-family="Inter" font-size="7">232×40px</text>
    <circle cx="1530" cy="970" r="8" fill="#f44336"/>
    <text x="1550" y="975" fill="#d32f2f" font-family="Inter" font-size="14">Logout</text>
    
    <!-- Main Content Area -->
    <rect x="1756" y="0" width="1184" height="64" fill="white" stroke="#e0e0e0"/>
    <text x="1760" y="15" fill="#757575" font-family="Inter" font-size="8">1184×64px</text>
    <text x="1780" y="40" fill="#212121" font-family="Inter" font-size="24" font-weight="bold">Dashboard Overview</text>
    
    <!-- Stats Cards -->
    <rect x="1780" y="88" width="280" height="120" rx="12" fill="white" stroke="#e0e0e0"/>
    <text x="1785" y="83" fill="#757575" font-family="Inter" font-size="8">280×120px</text>
    <circle cx="1810" cy="118" r="15" fill="#e3f2fd"/>
    <text x="1790" y="155" fill="#212121" font-family="Inter" font-size="28" font-weight="bold">1,234</text>
    <text x="1790" y="175" fill="#757575" font-family="Inter" font-size="14">Total Pengguna</text>
    <text x="1790" y="190" fill="#4caf50" font-family="Inter" font-size="12">+12%</text>
    
    <rect x="2080" y="88" width="280" height="120" rx="12" fill="white" stroke="#e0e0e0"/>
    <text x="2085" y="83" fill="#757575" font-family="Inter" font-size="8">280×120px</text>
    <circle cx="2110" cy="118" r="15" fill="#e8f5e8"/>
    <text x="2090" y="155" fill="#212121" font-family="Inter" font-size="28" font-weight="bold">856</text>
    <text x="2090" y="175" fill="#757575" font-family="Inter" font-size="14">Total Pesanan</text>
    <text x="2090" y="190" fill="#4caf50" font-family="Inter" font-size="12">+8%</text>
    
    <rect x="2380" y="88" width="280" height="120" rx="12" fill="white" stroke="#e0e0e0"/>
    <text x="2385" y="83" fill="#757575" font-family="Inter" font-size="8">280×120px</text>
    <circle cx="2410" cy="118" r="15" fill="#fff3e0"/>
    <text x="2390" y="155" fill="#212121" font-family="Inter" font-size="28" font-weight="bold">Rp 125M</text>
    <text x="2390" y="175" fill="#757575" font-family="Inter" font-size="14">Pendapatan</text>
    <text x="2390" y="190" fill="#4caf50" font-family="Inter" font-size="12">+15%</text>
    
    <rect x="2680" y="88" width="280" height="120" rx="12" fill="white" stroke="#e0e0e0"/>
    <text x="2685" y="83" fill="#757575" font-family="Inter" font-size="8">280×120px</text>
    <circle cx="2710" cy="118" r="15" fill="#f3e5f5"/>
    <text x="2690" y="155" fill="#212121" font-family="Inter" font-size="28" font-weight="bold">89</text>
    <text x="2690" y="175" fill="#757575" font-family="Inter" font-size="14">Active Sessions</text>
    <text x="2690" y="190" fill="#4caf50" font-family="Inter" font-size="12">+5%</text>
    
    <!-- Quick Actions -->
    <text x="1780" y="260" fill="#212121" font-family="Inter" font-size="20" font-weight="600">Quick Actions</text>
    
    <rect x="1780" y="280" width="280" height="100" rx="12" fill="white" stroke="#e0e0e0"/>
    <text x="1785" y="275" fill="#757575" font-family="Inter" font-size="8">280×100px</text>
    <circle cx="1810" cy="310" r="15" fill="#e3f2fd"/>
    <text x="1840" y="315" fill="#212121" font-family="Inter" font-size="16" font-weight="600">System Logs</text>
    <text x="1840" y="335" fill="#757575" font-family="Inter" font-size="14">Monitor activities</text>
    
    <rect x="2080" y="280" width="280" height="100" rx="12" fill="white" stroke="#e0e0e0"/>
    <text x="2085" y="275" fill="#757575" font-family="Inter" font-size="8">280×100px</text>
    <circle cx="2110" cy="310" r="15" fill="#e8f5e8"/>
    <text x="2140" y="315" fill="#212121" font-family="Inter" font-size="16" font-weight="600">Payment Approval</text>
    <text x="2140" y="335" fill="#757575" font-family="Inter" font-size="14">Approve payments</text>
    
    <rect x="2380" y="280" width="280" height="100" rx="12" fill="white" stroke="#e0e0e0"/>
    <text x="2385" y="275" fill="#757575" font-family="Inter" font-size="8">280×100px</text>
    <circle cx="2410" cy="310" r="15" fill="#fff3e0"/>
    <text x="2440" y="315" fill="#212121" font-family="Inter" font-size="16" font-weight="600">Product Management</text>
    <text x="2440" y="335" fill="#757575" font-family="Inter" font-size="14">Manage all products</text>
    
    <rect x="2680" y="280" width="280" height="100" rx="12" fill="white" stroke="#e0e0e0"/>
    <text x="2685" y="275" fill="#757575" font-family="Inter" font-size="8">280×100px</text>
    <circle cx="2710" cy="310" r="15" fill="#f3e5f5"/>
    <text x="2740" y="315" fill="#212121" font-family="Inter" font-size="16" font-weight="600">System Settings</text>
    <text x="2740" y="335" fill="#757575" font-family="Inter" font-size="14">Configure platform</text>
    
    <!-- Recent Orders Table -->
    <text x="1780" y="440" fill="#212121" font-family="Inter" font-size="20" font-weight="600">Recent Orders</text>
    <rect x="1780" y="460" width="1160" height="400" rx="12" fill="white" stroke="#e0e0e0"/>
    <text x="1785" y="455" fill="#757575" font-family="Inter" font-size="8">1160×400px</text>
    
    <!-- Table Header -->
    <rect x="1780" y="460" width="1160" height="50" rx="12" fill="#fafafa"/>
    <text x="1800" y="490" fill="#757575" font-family="Inter" font-size="14" font-weight="600">Order ID</text>
    <text x="1960" y="490" fill="#757575" font-family="Inter" font-size="14" font-weight="600">Customer</text>
    <text x="2180" y="490" fill="#757575" font-family="Inter" font-size="14" font-weight="600">Amount</text>
    <text x="2380" y="490" fill="#757575" font-family="Inter" font-size="14" font-weight="600">Status</text>
    <text x="2580" y="490" fill="#757575" font-family="Inter" font-size="14" font-weight="600">Date</text>
    
    <!-- Table Rows -->
    <text x="1800" y="540" fill="#212121" font-family="Inter" font-size="14">#ORD-001</text>
    <text x="1960" y="540" fill="#212121" font-family="Inter" font-size="14">John Doe</text>
    <text x="2180" y="540" fill="#212121" font-family="Inter" font-size="14">Rp 2,500,000</text>
    <rect x="2380" y="525" width="80" height="25" rx="12" fill="#e8f5e8"/>
    <text x="2410" y="540" fill="#2e7d32" font-family="Inter" font-size="12">Completed</text>
    <text x="2580" y="540" fill="#757575" font-family="Inter" font-size="14">Jan 2, 2026</text>
    
    <text x="1800" y="580" fill="#212121" font-family="Inter" font-size="14">#ORD-002</text>
    <text x="1960" y="580" fill="#212121" font-family="Inter" font-size="14">Jane Smith</text>
    <text x="2180" y="580" fill="#212121" font-family="Inter" font-size="14">Rp 1,800,000</text>
    <rect x="2380" y="565" width="80" height="25" rx="12" fill="#fff3e0"/>
    <text x="2410" y="580" fill="#f57c00" font-family="Inter" font-size="12">Processing</text>
    <text x="2580" y="580" fill="#757575" font-family="Inter" font-size="14">Jan 2, 2026</text>
    
    <text x="1800" y="620" fill="#212121" font-family="Inter" font-size="14">#ORD-003</text>
    <text x="1960" y="620" fill="#212121" font-family="Inter" font-size="14">Bob Wilson</text>
    <text x="2180" y="620" fill="#212121" font-family="Inter" font-size="14">Rp 3,200,000</text>
    <rect x="2380" y="605" width="80" height="25" rx="12" fill="#ffebee"/>
    <text x="2410" y="620" fill="#d32f2f" font-family="Inter" font-size="12">Pending</text>
    <text x="2580" y="620" fill="#757575" font-family="Inter" font-size="14">Jan 1, 2026</text>
  </g>
  
  <!-- SELLER MOBILE -->
  <g id="seller-mobile">
    <rect x="3000" y="0" width="375" height="812" rx="20" fill="white" stroke="#e0e0e0"/>
    <text x="3005" y="15" fill="#757575" font-family="Inter" font-size="8">375×812px</text>
    
    <!-- Mobile Header -->
    <rect x="3000" y="0" width="375" height="80" rx="20" fill="#d32f2f"/>
    <text x="3005" y="30" fill="white" font-family="Inter" font-size="8">375×80px</text>
    <text x="3020" y="50" fill="white" font-family="Inter" font-size="18" font-weight="bold">Seller Dashboard</text>
    <circle cx="3340" cy="40" r="15" fill="rgba(255,255,255,0.2)"/>
    <text x="3330" y="60" fill="white" font-family="Inter" font-size="7">30×30px</text>
    
    <!-- Seller Activities -->
    <text x="3020" y="120" fill="#212121" font-family="Inter" font-size="20" font-weight="bold">Today's Activities</text>
    
    <!-- Activity Card 1 -->
    <rect x="3020" y="140" width="335" height="120" rx="12" fill="white" stroke="#e0e0e0"/>
    <text x="3025" y="135" fill="#757575" font-family="Inter" font-size="7">335×120px</text>
    <circle cx="3045" cy="165" r="10" fill="#ff9800"/>
    <text x="3070" y="170" fill="#212121" font-family="Inter" font-size="16" font-weight="600">New Orders</text>
    <text x="3070" y="190" fill="#757575" font-family="Inter" font-size="14">5 orders waiting for confirmation</text>
    <text x="3070" y="210" fill="#757575" font-family="Inter" font-size="12">Total: Rp 12,500,000</text>
    <rect x="3280" y="180" width="60" height="25" rx="12" fill="#fff3e0"/>
    <text x="3285" y="175" fill="#757575" font-family="Inter" font-size="6">60×25px</text>
    <text x="3300" y="195" fill="#f57c00" font-family="Inter" font-size="10">Pending</text>
    
    <!-- Activity Card 2 -->
    <rect x="3020" y="280" width="335" height="120" rx="12" fill="white" stroke="#e0e0e0"/>
    <text x="3025" y="275" fill="#757575" font-family="Inter" font-size="7">335×120px</text>
    <circle cx="3045" cy="305" r="10" fill="#4caf50"/>
    <text x="3070" y="310" fill="#212121" font-family="Inter" font-size="16" font-weight="600">Products Sold</text>
    <text x="3070" y="330" fill="#757575" font-family="Inter" font-size="14">15 products sold today</text>
    <text x="3070" y="350" fill="#757575" font-family="Inter" font-size="12">Revenue: Rp 8,750,000</text>
    <rect x="3280" y="320" width="60" height="25" rx="12" fill="#e8f5e8"/>
    <text x="3285" y="315" fill="#757575" font-family="Inter" font-size="6">60×25px</text>
    <text x="3295" y="335" fill="#2e7d32" font-family="Inter" font-size="10">Completed</text>
    
    <!-- Activity Card 3 -->
    <rect x="3020" y="420" width="335" height="120" rx="12" fill="white" stroke="#e0e0e0"/>
    <text x="3025" y="415" fill="#757575" font-family="Inter" font-size="7">335×120px</text>
    <circle cx="3045" cy="445" r="10" fill="#f44336"/>
    <text x="3070" y="450" fill="#212121" font-family="Inter" font-size="16" font-weight="600">Low Stock Alert</text>
    <text x="3070" y="470" fill="#757575" font-family="Inter" font-size="14">3 products running low on stock</text>
    <text x="3070" y="490" fill="#757575" font-family="Inter" font-size="12">Action required: Restock items</text>
    <rect x="3280" y="460" width="60" height="25" rx="12" fill="#ffebee"/>
    <text x="3285" y="455" fill="#757575" font-family="Inter" font-size="6">60×25px</text>
    <text x="3300" y="475" fill="#d32f2f" font-family="Inter" font-size="10">Urgent</text>
    
    <!-- Activity Card 4 -->
    <rect x="3020" y="560" width="335" height="120" rx="12" fill="white" stroke="#e0e0e0"/>
    <text x="3025" y="555" fill="#757575" font-family="Inter" font-size="7">335×120px</text>
    <circle cx="3045" cy="585" r="10" fill="#2196f3"/>
    <text x="3070" y="590" fill="#212121" font-family="Inter" font-size="16" font-weight="600">Customer Reviews</text>
    <text x="3070" y="610" fill="#757575" font-family="Inter" font-size="14">2 new reviews received</text>
    <text x="3070" y="630" fill="#757575" font-family="Inter" font-size="12">Average rating: 4.8/5</text>
    <rect x="3280" y="600" width="60" height="25" rx="12" fill="#e3f2fd"/>
    <text x="3285" y="595" fill="#757575" font-family="Inter" font-size="6">60×25px</text>
    <text x="3300" y="615" fill="#1565c0" font-family="Inter" font-size="10">New</text>
    
    <!-- Bottom Navigation -->
    <rect x="3000" y="732" width="375" height="80" fill="#fafafa"/>
    <text x="3005" y="747" fill="#757575" font-family="Inter" font-size="7">375×80px</text>
    <circle cx="3070" cy="760" r="20" fill="#d32f2f"/>
    <text x="3055" y="745" fill="#757575" font-family="Inter" font-size="6">40×40px</text>
    <text x="3045" y="785" fill="#d32f2f" font-family="Inter" font-size="12">Dashboard</text>
    
    <circle cx="3150" cy="760" r="20" fill="#e0e0e0"/>
    <text x="3135" y="745" fill="#757575" font-family="Inter" font-size="6">40×40px</text>
    <text x="3130" y="785" fill="#757575" font-family="Inter" font-size="12">Products</text>
    
    <circle cx="3230" cy="760" r="20" fill="#e0e0e0"/>
    <text x="3215" y="745" fill="#757575" font-family="Inter" font-size="6">40×40px</text>
    <text x="3215" y="785" fill="#757575" font-family="Inter" font-size="12">Orders</text>
    
    <!-- Floating Action Button -->
    <circle cx="3320" cy="680" r="25" fill="#4caf50"/>
    <text x="3305" y="665" fill="#757575" font-family="Inter" font-size="6">50×50px</text>
    <text x="3310" y="690" fill="white" font-family="Inter" font-size="24">+</text>
  </g>
  
  <!-- Gradients -->
  <defs>
    <linearGradient id="heroGradient" x1="0%" y1="0%" x2="100%" y2="100%">
      <stop offset="0%" style="stop-color:#d32f2f;stop-opacity:1" />
      <stop offset="50%" style="stop-color:#c62828;stop-opacity:1" />
      <stop offset="100%" style="stop-color:#0d47a1;stop-opacity:1" />
    </linearGradient>
    <linearGradient id="logoGradient" x1="0%" y1="0%" x2="100%" y2="100%">
      <stop offset="0%" style="stop-color:#d32f2f;stop-opacity:1" />
      <stop offset="100%" style="stop-color:#0d47a1;stop-opacity:1" />
    </linearGradient>
  </defs>
</svg>
